<svg xmlns="http://www.w3.org/2000/svg" width="100" height="100" viewBox="0 0 100 100"><defs><style>.a{fill:#3e4fff;}</style></defs><path class="a" d="M210.273,19.043h-7.324V0H142.5V2.93h57.52V70.7h2.93V21.973h7.324a1.466,1.466,0,0,1,1.465,1.465v7.324h2.93V23.438A4.4,4.4,0,0,0,210.273,19.043Z" transform="translate(-114.667)"/><path class="a" d="M2.93,23.438a1.467,1.467,0,0,1,1.465-1.465h7.324V70.7h2.93V2.93H24.9V0H11.719V19.043H4.395A4.4,4.4,0,0,0,0,23.438V63.379H2.93Z"/><path class="a" d="M97.07,212.442H51.465v2.93H97.07v2.93a1.466,1.466,0,0,1-1.465,1.465H4.395A1.466,1.466,0,0,1,2.93,218.3v-2.93H48.535v-2.93H2.93v-7.324H0V218.3A4.4,4.4,0,0,0,4.395,222.7H40.643l-1.953,5.859h-9.2A4.4,4.4,0,0,0,25.1,232.95v5.859H38.281v-2.93H28.027v-2.93a1.466,1.466,0,0,1,1.465-1.465H47.07v-2.93H41.779l1.953-5.859H56.268l1.953,5.859H55.859v2.93H70.508a1.467,1.467,0,0,1,1.465,1.465v2.93H41.211v2.93H74.9V232.95a4.4,4.4,0,0,0-4.395-4.395h-9.2L59.357,222.7H95.605A4.4,4.4,0,0,0,100,218.3V172.5H97.07Z" transform="translate(0 -138.809)"/><path class="a" d="M256,459.5h2.93v2.93H256Z" transform="translate(-206 -369.754)"/><path class="a" d="M127.8,49.394A4.4,4.4,0,0,0,123.4,45H109.395A4.4,4.4,0,0,0,105,49.394V62.87a4.4,4.4,0,0,0,4.395,4.395h5.538v-2.93h-5.538a1.466,1.466,0,0,1-1.465-1.465V49.394a1.467,1.467,0,0,1,1.465-1.465H123.4a1.467,1.467,0,0,1,1.465,1.465V62.87a1.466,1.466,0,0,1-1.465,1.465h-5.538v2.93H123.4A4.4,4.4,0,0,0,127.8,62.87V49.394Z" transform="translate(-84.492 -36.21)"/><path class="a" d="M127.8,178.394A4.4,4.4,0,0,0,123.4,174H109.395A4.4,4.4,0,0,0,105,178.394V191.87a4.4,4.4,0,0,0,4.395,4.395h5.538v-2.93h-5.538a1.466,1.466,0,0,1-1.465-1.465V178.394a1.467,1.467,0,0,1,1.465-1.465H123.4a1.466,1.466,0,0,1,1.465,1.465V191.87a1.466,1.466,0,0,1-1.465,1.465h-5.538v2.93H123.4a4.4,4.4,0,0,0,4.395-4.395V178.394Z" transform="translate(-84.492 -140.015)"/><path class="a" d="M127.8,314.523v-7.129A4.4,4.4,0,0,0,123.4,303H109.395A4.4,4.4,0,0,0,105,307.394v7.129h2.93v-7.129a1.467,1.467,0,0,1,1.465-1.465H123.4a1.466,1.466,0,0,1,1.465,1.465v7.129Z" transform="translate(-84.492 -243.82)"/><path class="a" d="M244.214,79.5h12.11v2.93h-12.11Z" transform="translate(-196.516 -63.973)"/><path class="a" d="M244.214,109.5h22.364v2.93H244.214Z" transform="translate(-196.516 -88.112)"/><path class="a" d="M244.214,208.5h12.11v2.93h-12.11Z" transform="translate(-196.516 -167.777)"/><path class="a" d="M244.214,238.5h22.364v2.93H244.214Z" transform="translate(-196.516 -191.917)"/><path class="a" d="M244.214,347h12.11v2.93h-12.11Z" transform="translate(-196.516 -279.227)"/><path class="a" d="M407,30h2.93v2.93H407Z" transform="translate(-327.509 -24.14)"/><path class="a" d="M407,60h2.93v8.789H407Z" transform="translate(-327.509 -48.281)"/><path class="a" d="M321.219,79.5h2.93v2.93h-2.93Z" transform="translate(-258.481 -63.973)"/><path class="a" d="M321.219,208.5h2.93v2.93h-2.93Z" transform="translate(-258.481 -167.777)"/><path class="a" d="M321.219,347h2.93v2.93h-2.93Z" transform="translate(-258.481 -279.227)"/></svg>