<svg xmlns="http://www.w3.org/2000/svg" width="99.592" height="99.592" viewBox="0 0 99.592 99.592"><defs><style>.a{fill:#0d4efe;}</style></defs><g transform="translate(0.002)"><g transform="translate(8.882 95.702)"><path class="a" d="M48.99,492.57a1.944,1.944,0,1,0,.57,1.375A1.96,1.96,0,0,0,48.99,492.57Z" transform="translate(-45.67 -492)"/></g><g transform="translate(69.245 81.955)"><path class="a" d="M359.321,421.9a1.945,1.945,0,1,0,.57,1.375A1.962,1.962,0,0,0,359.321,421.9Z" transform="translate(-356 -421.33)"/></g><g transform="translate(-0.002 15.95)"><path class="a" d="M93.318,97.487A8.145,8.145,0,0,0,95.7,91.726V90.17a8.17,8.17,0,1,0-16.339,0v1.556a8.144,8.144,0,0,0,2.384,5.762,12.092,12.092,0,0,0-6.118,8.632h-8.91a5.834,5.834,0,0,0-5.5,7.781H38.374a5.834,5.834,0,0,0-5.5-7.781h-8.91a12.091,12.091,0,0,0-6.118-8.632,8.144,8.144,0,0,0,2.384-5.762V90.17a8.17,8.17,0,1,0-16.339,0v1.556a8.145,8.145,0,0,0,2.383,5.762A12.069,12.069,0,0,0,0,108.065v21.818a11.067,11.067,0,0,0,11.055,11.055h15.4v18.576a6.094,6.094,0,0,0,.425,2.237H19.192a1.945,1.945,0,0,0,0,3.89H88.764a1.945,1.945,0,0,0,0-3.89H72.713a6.094,6.094,0,0,0,.425-2.237v-2.237a1.945,1.945,0,0,0-3.89,0v2.237a2.237,2.237,0,0,1-4.474,0V134.957a5.5,5.5,0,0,1,5.5-5.5H95.7v.421a7.173,7.173,0,0,1-7.165,7.165H71.193a1.945,1.945,0,0,0-1.945,1.945v3.112a1.945,1.945,0,1,0,3.89,0v-1.167h15.4a11.067,11.067,0,0,0,11.055-11.055V108.065A12.069,12.069,0,0,0,93.318,97.487ZM83.253,90.17a4.279,4.279,0,0,1,8.559,0v1.556a4.279,4.279,0,1,1-8.559,0Zm-75.472,0a4.279,4.279,0,0,1,8.559,0v1.556a4.279,4.279,0,1,1-8.559,0Zm-3.89,17.9a8.17,8.17,0,1,1,16.339,0,1.945,1.945,0,0,0,1.945,1.945h10.7a1.945,1.945,0,0,1,0,3.89H21.545a8.362,8.362,0,0,1-7.382-4.42,1.945,1.945,0,0,0-3.429,1.837,12.244,12.244,0,0,0,9.6,6.414,1.942,1.942,0,0,0-.109.643v7.2H3.89Zm24,17.506H24.12v-7.2a1.942,1.942,0,0,0-.089-.584H27.89a7.752,7.752,0,0,0,0,7.781Zm6.928,33.943a2.237,2.237,0,0,1-4.474,0V138.993a1.945,1.945,0,0,0-1.945-1.945H11.055a7.173,7.173,0,0,1-7.165-7.165v-.421H29.323a5.5,5.5,0,0,1,5.5,5.5Zm9.142,2.237H38.284a6.09,6.09,0,0,0,.425-2.237V134.957a9.332,9.332,0,0,0-1.784-5.5H43.96Zm7.781,0h-3.89v-32.29h3.89Zm9.567,0H55.631v-32.29h7.036a9.333,9.333,0,0,0-1.784,5.5v24.558A6.094,6.094,0,0,0,61.308,161.752Zm3.66-36.18H34.624a3.89,3.89,0,0,1,0-7.781H64.968a3.89,3.89,0,0,1,0,7.781Zm10.5-7.2v7.2H71.7a7.752,7.752,0,0,0,0-7.781h3.859A1.942,1.942,0,0,0,75.472,118.375Zm20.23,7.2H79.362v-7.2a1.942,1.942,0,0,0-.109-.643,12.244,12.244,0,0,0,9.6-6.414,1.945,1.945,0,0,0-3.429-1.837,8.362,8.362,0,0,1-7.382,4.42H66.719a1.945,1.945,0,0,1,0-3.89h10.7a1.945,1.945,0,0,0,1.945-1.945,8.17,8.17,0,1,1,16.339,0Z" transform="translate(0 -82)"/></g><g transform="translate(29.953)"><path class="a" d="M187.846,0h-28.01A5.842,5.842,0,0,0,154,5.835V24.9a5.842,5.842,0,0,0,5.835,5.835h6.78l5.849,5.849a1.945,1.945,0,0,0,2.751,0l5.849-5.849h6.78a5.842,5.842,0,0,0,5.835-5.835V5.835A5.842,5.842,0,0,0,187.846,0Zm1.945,24.9a1.947,1.947,0,0,1-1.945,1.945H180.26a1.946,1.946,0,0,0-1.375.57l-5.044,5.043L168.8,27.413a1.947,1.947,0,0,0-1.375-.57h-7.586A1.947,1.947,0,0,1,157.89,24.9V5.835a1.947,1.947,0,0,1,1.945-1.945h28.01a1.947,1.947,0,0,1,1.945,1.945Z" transform="translate(-154)"/></g><g transform="translate(38.707 12.677)"><path class="a" d="M202.32,65.74a1.944,1.944,0,1,0,.57,1.375A1.952,1.952,0,0,0,202.32,65.74Z" transform="translate(-199 -65.17)"/></g><g transform="translate(47.849 12.677)"><path class="a" d="M249.32,65.74a1.944,1.944,0,1,0,.57,1.375A1.96,1.96,0,0,0,249.32,65.74Z" transform="translate(-246 -65.17)"/></g><g transform="translate(56.991 12.677)"><path class="a" d="M296.32,65.74a1.943,1.943,0,1,0,.57,1.375A1.951,1.951,0,0,0,296.32,65.74Z" transform="translate(-293 -65.17)"/></g></g></svg>