<svg xmlns="http://www.w3.org/2000/svg" width="100" height="99.999" viewBox="0 0 100 99.999"><defs><style>.a{fill:#0d4efe;}</style></defs><g transform="translate(0 -0.001)"><g transform="translate(19.669 33.481)"><path class="a" d="M104.039,171.991a1.953,1.953,0,1,0,0,2.762A1.954,1.954,0,0,0,104.039,171.991Z" transform="translate(-100.705 -171.42)"/></g><g transform="translate(0 76.561)"><path class="a" d="M49.453,402.872a6.838,6.838,0,0,0-5.509-10.885h-33.2a6.831,6.831,0,0,0-5.5,10.883A9.773,9.773,0,0,0,0,411.518v1.953a1.953,1.953,0,0,0,1.953,1.953H52.732a1.953,1.953,0,0,0,1.953-1.953v-1.953A9.773,9.773,0,0,0,49.453,402.872ZM8.67,396.75a2.91,2.91,0,0,1,2.072-.858h33.2a2.93,2.93,0,1,1,0,5.859h-33.2a2.93,2.93,0,0,1-2.072-5ZM3.906,411.518a5.866,5.866,0,0,1,5.859-5.859H44.92a5.866,5.866,0,0,1,5.859,5.859Z" transform="translate(0 -391.987)"/></g><g transform="translate(0.004 0.001)"><g transform="translate(0 0)"><path class="a" d="M98.2,82.056a12.3,12.3,0,0,0-2.353-2.7L86.721,71.4a1.939,1.939,0,0,0-.777-.678L80.425,65.9,54.88,43.621a5.848,5.848,0,0,0-1.715-9.328l2.363-2.363a7.817,7.817,0,0,0,7.542-2.019,7.811,7.811,0,0,0,0-11.049L46.5,2.29A7.809,7.809,0,0,0,33.43,9.832L9.851,33.411a7.861,7.861,0,0,0-2.022-.265A7.811,7.811,0,0,0,2.306,46.482L18.877,63.054a7.81,7.81,0,0,0,13.068-7.542L34.3,53.153a5.861,5.861,0,0,0,9.331,1.712L70.843,86.126a1.962,1.962,0,0,0,.265.331c.035.035.072.067.109.1l8.108,9.315c.2.238.417.472.641.7A11.617,11.617,0,0,0,88.221,100a11.989,11.989,0,0,0,1.644-.114,11.819,11.819,0,0,0,8.72-6.037A11.557,11.557,0,0,0,98.2,82.056Zm-59.988-77a3.9,3.9,0,0,1,5.524,0L60.308,21.624a3.906,3.906,0,0,1-5.523,5.525L38.212,10.576h0A3.909,3.909,0,0,1,38.211,5.052ZM27.164,60.292a3.911,3.911,0,0,1-5.525,0L5.068,43.72a3.906,3.906,0,0,1,5.522-5.526L27.164,54.769A3.909,3.909,0,0,1,27.164,60.292Zm8.223-13.746-5.461,5.461L13.353,35.433l22.1-22.1L52.022,29.91l-5.471,5.471-.054.052L35.455,46.476C35.432,46.5,35.41,46.522,35.387,46.546Zm6.974,4.074-.012.012-1.375,1.375a1.953,1.953,0,0,1-2.787-2.738L49.282,38.175a1.953,1.953,0,0,1,3.313,1.4,1.935,1.935,0,0,1-.573,1.381l-1.367,1.367-.028.028ZM46.406,52.1l5.708-5.708L76.282,67.472l-8.819,8.819ZM70.034,79.245l9.2-9.2,2.951,2.574L72.6,82.2Zm25.143,12.7a7.944,7.944,0,0,1-5.847,4.076,7.76,7.76,0,0,1-6.6-2.213c-.15-.15-.294-.306-.428-.465l-.019-.022-7.105-8.164,9.959-9.959,8.154,7.113.019.016a8.407,8.407,0,0,1,1.612,1.854A7.711,7.711,0,0,1,95.177,91.942Z" transform="translate(-0.021 -0.001)"/></g></g><g transform="translate(25.192 19.67)"><path class="a" d="M140.606,101.279a1.953,1.953,0,0,0-2.762,0l-8.287,8.287a1.953,1.953,0,0,0,2.762,2.762l8.287-8.287A1.953,1.953,0,0,0,140.606,101.279Z" transform="translate(-128.985 -100.707)"/></g></g></svg>