<svg xmlns="http://www.w3.org/2000/svg" width="14.23" height="18.974" viewBox="0 0 14.23 18.974"><defs><style>.a{fill:#0d4efe;}</style></defs><g transform="translate(-54.818)"><path class="a" d="M68.7,9.833a1.143,1.143,0,0,0-.84-.346H58.771V5.534A3.047,3.047,0,0,1,59.7,3.3a3.161,3.161,0,0,1,4.472,0A3.047,3.047,0,0,1,65.1,5.534a.8.8,0,0,0,.79.791h.791a.8.8,0,0,0,.79-.791,5.33,5.33,0,0,0-1.624-3.91,5.517,5.517,0,0,0-7.819,0A5.329,5.329,0,0,0,56.4,5.534V9.487H56a1.181,1.181,0,0,0-1.186,1.186v7.115A1.181,1.181,0,0,0,56,18.973H67.862a1.181,1.181,0,0,0,1.186-1.186V10.673A1.143,1.143,0,0,0,68.7,9.833Z" transform="translate(0)"/></g></svg>