<svg xmlns="http://www.w3.org/2000/svg" width="14.229" height="18.972" viewBox="0 0 14.229 18.972"><defs><style>.a{fill:#0d4efe;}</style></defs><path class="a" d="M77.489,7.444V5.929a5.929,5.929,0,0,0-11.858,0V7.444a2.363,2.363,0,0,0-1.186,2.042V16.6a2.374,2.374,0,0,0,2.372,2.372H76.3A2.374,2.374,0,0,0,78.674,16.6V9.486a2.363,2.363,0,0,0-1.186-2.042ZM71.56,2.372a3.561,3.561,0,0,1,3.557,3.557V7.115H68V5.929A3.561,3.561,0,0,1,71.56,2.372Zm1.186,11.4v1.647H70.374V13.768a1.779,1.779,0,1,1,2.372,0Z" transform="translate(-64.445)"/></svg>