<svg xmlns="http://www.w3.org/2000/svg" width="72.424" height="106.514" viewBox="0 0 72.424 106.514"><defs><style>.a{fill:#0d4efe;}</style></defs><path class="a" d="M68.462,19.726a1.587,1.587,0,1,0-2.825,1.447A33.065,33.065,0,0,1,62.6,56.092a14.125,14.125,0,0,0-2.8,8.468v.2A7.847,7.847,0,0,1,51.963,72.6H37.8v-20.1A11.76,11.76,0,0,0,47.955,40.873a1.587,1.587,0,0,0-3.174,0,8.569,8.569,0,0,1-17.139,0,1.587,1.587,0,0,0-3.174,0A11.76,11.76,0,0,0,34.625,52.506V72.6H20.46a7.847,7.847,0,0,1-7.838-7.839v-.2a14.279,14.279,0,0,0-2.9-8.6A33.074,33.074,0,0,1,36.15,3.174h.063A32.809,32.809,0,0,1,62.5,16.2a1.587,1.587,0,0,0,2.524-1.924,36.536,36.536,0,0,0-12.507-10.4,36.155,36.155,0,0,0-42.026,6.907A36.141,36.141,0,0,0,7.183,57.86a11.134,11.134,0,0,1,2.266,6.7v.2A10.993,10.993,0,0,0,13.394,73.2a6.707,6.707,0,0,0,.991,12.581,6.706,6.706,0,0,0,5.543,10.486h4.5a11.83,11.83,0,0,0,23.447,0h4.5a6.707,6.707,0,0,0,5.544-10.486,6.708,6.708,0,0,0,1.064-12.548,10.994,10.994,0,0,0,3.984-8.47v-.2A10.938,10.938,0,0,1,65.133,58a36.242,36.242,0,0,0,3.329-38.278ZM36.156,103.34a8.672,8.672,0,0,1-8.511-7.072H44.667A8.672,8.672,0,0,1,36.156,103.34Zm20-27.565a3.536,3.536,0,1,1,0,7.072H28.527a1.587,1.587,0,1,0,0,3.173H52.383a3.536,3.536,0,1,1,0,7.072H19.927a3.536,3.536,0,0,1,0-7.072h2.252a1.587,1.587,0,0,0,0-3.173H16.158a3.536,3.536,0,0,1,0-7.072Zm0,0" transform="translate(0 0)"/></svg>