<svg xmlns="http://www.w3.org/2000/svg" width="20" height="24" viewBox="0 0 20 24"><defs><style>.a{fill:#6c6c6c;}</style></defs><g transform="translate(-2)"><path class="a" d="M19.5,24H4.5A2.5,2.5,0,0,1,2,21.5V2.5A2.5,2.5,0,0,1,4.5,0h15A2.5,2.5,0,0,1,22,2.5v19A2.5,2.5,0,0,1,19.5,24ZM4.5,1A1.5,1.5,0,0,0,3,2.5v19A1.5,1.5,0,0,0,4.5,23h15A1.5,1.5,0,0,0,21,21.5V2.5A1.5,1.5,0,0,0,19.5,1Z"/><path class="a" d="M11.5,10a.5.5,0,0,1-.5-.5V9H6v.5a.5.5,0,0,1-1,0v-1A.5.5,0,0,1,5.5,8h6a.5.5,0,0,1,.5.5v1A.5.5,0,0,1,11.5,10Z"/><path class="a" d="M8.5,15a.5.5,0,0,1-.5-.5v-6a.5.5,0,0,1,1,0v6A.5.5,0,0,1,8.5,15Z"/><path class="a" d="M9.5,15h-2a.5.5,0,0,1,0-1h2a.5.5,0,0,1,0,1Z"/><path class="a" d="M18.5,9h-4a.5.5,0,0,1,0-1h4a.5.5,0,0,1,0,1Z"/><path class="a" d="M18.5,12h-4a.5.5,0,0,1,0-1h4a.5.5,0,0,1,0,1Z"/><path class="a" d="M18.5,15h-4a.5.5,0,0,1,0-1h4a.5.5,0,0,1,0,1Z"/><path class="a" d="M18.5,18H5.5a.5.5,0,0,1,0-1h13a.5.5,0,0,1,0,1Z"/><path class="a" d="M18.5,21H5.5a.5.5,0,0,1,0-1h13a.5.5,0,0,1,0,1Z"/></g></svg>