<svg xmlns="http://www.w3.org/2000/svg" width="100" height="100" viewBox="0 0 100 100"><defs><style>.a{fill:#0d4efe;}</style></defs><path class="a" d="M91.935,22.581H69.355V19.355a19.355,19.355,0,1,0-38.71,0v3.226H8.065A8.074,8.074,0,0,0,0,30.645V82.258a8.074,8.074,0,0,0,8.065,8.065H29.032v6.452H22.581V100H77.419V96.774H70.968V90.323H91.935A8.074,8.074,0,0,0,100,82.258V30.645A8.074,8.074,0,0,0,91.935,22.581ZM62.9,32.258V27.419a3.226,3.226,0,1,1,0,6.452h-.111A12.978,12.978,0,0,0,62.9,32.258ZM50,3.226A16.147,16.147,0,0,1,66.129,19.355v5.736a6.381,6.381,0,0,0-3.226-.9h-.421a7.122,7.122,0,0,0-9.01-4.469L50,20.88l-3.472-1.158a7.13,7.13,0,0,0-9.012,4.471H37.1a6.381,6.381,0,0,0-3.226.9V19.355A16.147,16.147,0,0,1,50,3.226ZM66.129,58.065v9.677H33.871V58.065H30.645v9.677H24.194V60.1a8.1,8.1,0,0,1,5.829-7.749l6.247-1.8L41.287,62.26,50,55.292l8.711,6.97,5.018-11.709,6.246,1.8A8.1,8.1,0,0,1,75.806,60.1v7.638H69.355V58.065ZM43.081,48.587l4.5,4.5-5,4-3.19-7.443Zm14.337,8.506-5-4,4.5-4.5,3.687,1.065ZM54.839,46.106,50,50.945l-4.839-4.839V44.212a12.8,12.8,0,0,0,9.677,0ZM50,41.935a9.687,9.687,0,0,1-9.677-9.677v-5.74A3.938,3.938,0,0,1,45.5,22.782l4.5,1.5,4.494-1.5a3.94,3.94,0,0,1,5.184,3.735v5.74A9.687,9.687,0,0,1,50,41.935ZM37.208,33.871H37.1a3.226,3.226,0,1,1,0-6.452v4.839A12.98,12.98,0,0,0,37.208,33.871ZM8.065,25.806H30.645v4.839A6.458,6.458,0,0,0,37.1,37.1h.95a12.947,12.947,0,0,0,3.889,5.218v3.247L29.129,49.255A11.344,11.344,0,0,0,20.968,60.1V70.968H79.032V60.1a11.346,11.346,0,0,0-8.161-10.849L58.065,45.561V42.314A12.947,12.947,0,0,0,61.953,37.1h.95a6.458,6.458,0,0,0,6.452-6.452V25.806H91.935a4.845,4.845,0,0,1,4.839,4.839V77.419H27.908L23.07,74.194H3.226V30.645A4.845,4.845,0,0,1,8.065,25.806ZM91.935,87.1H35.484v3.226H67.742v6.452H32.258V87.1H8.065a4.845,4.845,0,0,1-4.839-4.839V77.419H22.092l4.839,3.226H96.774v1.613A4.845,4.845,0,0,1,91.935,87.1Zm0,0"/><path class="a" d="M96,400h1.452v1.452H96Zm0,0" transform="translate(-76.29 -308.71)"/><path class="a" d="M64,400h1.452v1.452H64Zm0,0" transform="translate(-58.193 -308.71)"/><path class="a" d="M32,400h1.452v1.452H32Zm0,0" transform="translate(-29.097 -308.71)"/><path class="a" d="M32,144h9.436v1.452H32Zm0,0" transform="translate(-29.097 -114.436)"/><path class="a" d="M32,176h9.436v1.452H32Zm0,0" transform="translate(-29.097 -139.866)"/><path class="a" d="M32,208h9.436v1.452H32Zm0,0" transform="translate(-29.097 -165.296)"/><path class="a" d="M408,352h5.081v1.452H408Zm0,0" transform="translate(-315.984 -279.731)"/><path class="a" d="M408,320h5.081v1.452H408Zm0,0" transform="translate(-315.984 -254.301)"/><path class="a" d="M408,288h5.081v1.452H408Zm0,0" transform="translate(-315.984 -228.871)"/><path class="a" d="M408,256h5.081v1.452H408Zm0,0" transform="translate(-315.984 -203.441)"/></svg>