<svg xmlns="http://www.w3.org/2000/svg" width="28.969" height="22.066" viewBox="0 0 28.969 22.066"><defs><style>.a{fill:#fff;}</style></defs><g transform="translate(0 -61)"><path class="a" d="M204.087,170.372l-6.79-4.243a.849.849,0,0,0-1.3.72v8.487a.849.849,0,0,0,1.3.72l6.79-4.243a.849.849,0,0,0,0-1.439ZM197.7,173.8V168.38l4.34,2.712Z" transform="translate(-184.909 -99.059)"/><path class="a" d="M24.725,61H4.243A4.248,4.248,0,0,0,0,65.243V78.823a4.248,4.248,0,0,0,4.243,4.243H24.725a4.248,4.248,0,0,0,4.243-4.243V65.243A4.248,4.248,0,0,0,24.725,61Zm2.546,17.823a2.549,2.549,0,0,1-2.546,2.546H4.243A2.549,2.549,0,0,1,1.7,78.823V65.243A2.549,2.549,0,0,1,4.243,62.7H24.725a2.549,2.549,0,0,1,2.546,2.546Z" transform="translate(0 0)"/></g></svg>