<svg xmlns="http://www.w3.org/2000/svg" width="106.92" height="114.651" viewBox="0 0 106.92 114.651"><defs><style>.a{fill:#2c57ff;}</style></defs><g transform="translate(0)"><path class="a" d="M169.632,205.136A5.136,5.136,0,0,0,164.5,200H111.6a5.136,5.136,0,1,0,0,10.272h52.9A5.136,5.136,0,0,0,169.632,205.136Z" transform="translate(-90.04 -155.772)"/><path class="a" d="M111.6,280a5.136,5.136,0,1,0,0,10.272h32.129a5.136,5.136,0,1,0,0-10.272Z" transform="translate(-88.912 -218.08)"/><path class="a" d="M60.341,105.694H44.963a9.089,9.089,0,0,1-9.2-8.957V17.914a9.089,9.089,0,0,1,9.2-8.957h56.532a9.089,9.089,0,0,1,9.2,8.957V45.457a4.6,4.6,0,0,0,9.2,0V17.914A18.179,18.179,0,0,0,101.495,0H44.963A18.179,18.179,0,0,0,26.57,17.914V96.737a18.179,18.179,0,0,0,18.393,17.914H60.341a4.48,4.48,0,1,0,0-8.957Z" transform="translate(-26.57 0)"/><path class="a" d="M301.09,276.53a15.424,15.424,0,0,0-21.786,0l-28.2,28.135a5.139,5.139,0,0,0-1.287,2.143l-6.141,20.217a5.135,5.135,0,0,0,6.286,6.442l20.73-5.742a5.134,5.134,0,0,0,2.257-1.315l28.139-28.086A15.426,15.426,0,0,0,301.09,276.53Zm-34.439,41.652-10.429,2.889,3.052-10.048L278.3,292.039l7.265,7.265Zm27.18-27.128-1,.993-7.264-7.263.992-.99a5.136,5.136,0,0,1,7.267,7.26Z" transform="translate(-198.676 -218.999)"/><path class="a" d="M164.5,120H111.6a5.136,5.136,0,1,0,0,10.272h52.9a5.136,5.136,0,1,0,0-10.272Z" transform="translate(-90.04 -93.463)"/></g></svg>