<svg xmlns="http://www.w3.org/2000/svg" width="131.622" height="123.054" viewBox="0 0 131.622 123.054"><defs><style>.a{fill:#2c57ff;}</style></defs><g transform="translate(52.964 0)"><circle class="a" cx="10.339" cy="10.339" r="10.339" transform="translate(2.512)"/><path class="a" d="M41.049,18.663a11.352,11.352,0,0,0-22.261,0,18.7,18.7,0,0,1,22.261,0Z" transform="translate(-17.065 13.946)"/><path class="a" d="M46.873,30.336a5.714,5.714,0,0,0-8.068.518l-8.15,9.256a5.719,5.719,0,1,0,8.589,7.553L47.388,38.4A5.712,5.712,0,0,0,46.873,30.336Z" transform="translate(2.885 50.956)"/><path class="a" d="M39.24,12.185a5.719,5.719,0,0,0-8.586,7.556L38.8,29a5.719,5.719,0,1,0,8.589-7.553Z" transform="translate(2.886 15.289)"/><g transform="translate(0 35.731)"><path class="a" d="M31.1,23.517h-.108A12.956,12.956,0,0,0,18.277,37.9l5.877,37.978a7.194,7.194,0,0,0,6.892,6.532,7.18,7.18,0,0,0,6.9-6.514l5.871-38A12.947,12.947,0,0,0,31.1,23.517Z" transform="translate(-18.196 4.917)"/><circle class="a" cx="12.603" cy="12.603" r="12.603" transform="translate(0.244)"/></g><g transform="translate(55.267 20.791)"><path class="a" d="M48.929,17.509h-.1A11.8,11.8,0,0,0,37.257,30.6L42.6,65.174a6.287,6.287,0,0,0,12.554.02L60.5,30.6A11.792,11.792,0,0,0,48.929,17.509Z" transform="translate(-37.184 8.378)"/><circle class="a" cx="11.474" cy="11.474" r="11.474" transform="translate(0.222)"/></g></g><g transform="translate(0 20.791)"><path class="a" d="M11.2,30.336a5.718,5.718,0,0,1,8.071.518l8.147,9.256a5.718,5.718,0,1,1-8.586,7.553L10.692,38.4A5.709,5.709,0,0,1,11.2,30.336Z" transform="translate(17.699 30.165)"/><path class="a" d="M18.835,12.185a5.719,5.719,0,0,1,8.586,7.556L19.275,29a5.719,5.719,0,1,1-8.589-7.553Z" transform="translate(17.694 -5.502)"/><path class="a" d="M11.646,17.509h.1A11.8,11.8,0,0,1,23.321,30.6l-5.35,34.573A6.549,6.549,0,0,1,11.7,71.121a6.535,6.535,0,0,1-6.278-5.926L.073,30.6A11.791,11.791,0,0,1,11.646,17.509Z" transform="translate(0 8.378)"/><circle class="a" cx="11.474" cy="11.474" r="11.474" transform="translate(0.225)"/></g></svg>