<svg xmlns="http://www.w3.org/2000/svg" width="139.318" height="122.903" viewBox="0 0 139.318 122.903"><defs><style>.a{fill:#2c57ff;}</style></defs><path class="a" d="M110.106,131.219V75.147c0-8.628-6.048-15.648-13.482-15.648H13.482C6.048,59.5,0,66.519,0,75.147v56.072c0,8.628,6.048,15.648,13.482,15.648h12.1L25.842,161c.077,4.245,4.277,6.612,7.2,4.055l20.781-18.183h42.8c7.434,0,13.482-7.02,13.482-15.648Zm-57.789,5.216a4.1,4.1,0,0,0-2.705,1.051l-14.969,13.1-.165-9.044c-.052-2.837-2.048-5.105-4.493-5.105h-16.5c-2.478,0-4.494-2.34-4.494-5.216V75.147c0-2.876,2.016-5.216,4.494-5.216H96.624c2.478,0,4.494,2.34,4.494,5.216v56.072c0,2.876-2.016,5.216-4.494,5.216H52.317Zm87-28.688v43.032c0,8.629-6.048,15.648-13.482,15.648H113.715l-.239,10.891c-.062,2.834-2.064,5.083-4.492,5.083-1.793,0-.795.361-23.273-15.974H65.165c-2.482,0-4.494-2.335-4.494-5.216S62.683,156,65.165,156c23.837,0,22.724-.293,24.221.795l15.305,11.122.15-6.834c.062-2.828,2.055-5.083,4.493-5.083h16.5c2.478,0,4.494-2.34,4.494-5.216V107.747c0-2.876-2.016-5.216-4.494-5.216s-4.494-2.335-4.494-5.216,2.012-5.216,4.494-5.216C133.27,92.1,139.318,99.118,139.318,107.747ZM83.142,93.729c0,2.881-2.012,5.216-4.494,5.216H31.459c-2.482,0-4.494-2.335-4.494-5.216s2.012-5.216,4.494-5.216H78.647C81.13,88.513,83.142,90.848,83.142,93.729ZM75,116.549c0,2.881-2.012,5.216-4.494,5.216H39.6c-2.482,0-4.494-2.335-4.494-5.216s2.012-5.216,4.494-5.216H70.5C72.984,111.333,75,113.668,75,116.549Z" transform="translate(0 -59.499)"/></svg>