<svg xmlns="http://www.w3.org/2000/svg" width="120.363" height="120.363" viewBox="0 0 120.363 120.363"><defs><style>.a{fill:#2c57ff;}</style></defs><path class="a" d="M164.526,78.807H175.1v27.035a3.526,3.526,0,0,0,3.526,3.526h47.017a3.526,3.526,0,0,0,3.526-3.526V63.526A3.526,3.526,0,0,0,225.647,60H178.631a3.526,3.526,0,0,0-2.258.817L162.268,72.572a3.526,3.526,0,0,0,2.258,6.235Zm15.382-11.754h42.214v35.263H182.157V75.28a3.526,3.526,0,0,0-3.526-3.526h-4.365Z" transform="translate(-123.151 -45.895)"/><path class="a" d="M284.526,127.052h18.807a3.526,3.526,0,1,0,0-7.053H284.526a3.526,3.526,0,0,0,0,7.053Z" transform="translate(-214.942 -91.79)"/><path class="a" d="M284.526,187.052h18.807a3.526,3.526,0,1,0,0-7.052H284.526a3.526,3.526,0,0,0,0,7.052Z" transform="translate(-214.942 -137.685)"/><path class="a" d="M109.784,0H10.579A10.591,10.591,0,0,0,0,10.579v75.7A10.591,10.591,0,0,0,10.579,96.854h31.76a30.1,30.1,0,0,1-6.358,15.2l-1,1.252H27.27a3.526,3.526,0,0,0,0,7.053H93.093a3.526,3.526,0,0,0,0-7.053H85.384l-1-1.252a30.107,30.107,0,0,1-6.358-15.2h31.76a10.591,10.591,0,0,0,10.579-10.579v-75.7A10.591,10.591,0,0,0,109.784,0ZM10.579,7.052h99.205a3.53,3.53,0,0,1,3.526,3.526v62.3H49.6V71.7a17.627,17.627,0,0,0-8.077-14.806,12.93,12.93,0,1,0-19.109,0A17.627,17.627,0,0,0,14.34,71.7v1.175H7.052v-62.3A3.53,3.53,0,0,1,10.579,7.052Zm15.515,41.14a5.877,5.877,0,1,1,5.877,5.877A5.884,5.884,0,0,1,26.094,48.192Zm5.877,12.93A10.591,10.591,0,0,1,42.55,71.7v1.175H21.393V71.7A10.591,10.591,0,0,1,31.971,61.122ZM76.616,113.31H43.747a37.245,37.245,0,0,0,5.686-16.456h21.5A37.245,37.245,0,0,0,76.616,113.31ZM109.784,89.8H10.579a3.53,3.53,0,0,1-3.526-3.526V79.928H113.31v6.347A3.53,3.53,0,0,1,109.784,89.8Z"/></svg>