<svg xmlns="http://www.w3.org/2000/svg" width="164.171" height="120.392" viewBox="0 0 164.171 120.392"><defs><style>.a{fill:#2c57ff;}</style></defs><path class="a" d="M98.558,61.043a2.736,2.736,0,0,0,2.736-2.736V22.736A2.736,2.736,0,0,0,98.558,20H13.736A2.736,2.736,0,0,0,11,22.736V85.668A2.736,2.736,0,0,0,13.736,88.4H76.669a2.736,2.736,0,1,0,0-5.472h-60.2V25.472H95.822V58.307A2.736,2.736,0,0,0,98.558,61.043Z" transform="translate(13.626 -6.319)"/><path class="a" d="M65.153,33.681a2.736,2.736,0,0,0,2.736-2.736V22.736A2.736,2.736,0,0,0,65.153,20H48.736A2.736,2.736,0,0,0,46,22.736V39.153a2.736,2.736,0,0,0,2.736,2.736H59.681a2.736,2.736,0,1,0,0-5.472H51.472V25.472H62.417v5.472A2.736,2.736,0,0,0,65.153,33.681Z" transform="translate(74.392 -6.319)"/><path class="a" d="M27.959,28.788A2.736,2.736,0,0,0,24,31.237V44.918a2.736,2.736,0,0,0,3.959,2.463L41.64,40.54a2.736,2.736,0,0,0,0-4.9Zm1.513,11.7V35.664L34.3,38.077Z" transform="translate(36.196 8.438)"/><path class="a" d="M56.413,57.375a2.736,2.736,0,0,0,3.708-1.094,21.868,21.868,0,1,0-8.838,8.841,2.737,2.737,0,1,0-2.608-4.813,16.417,16.417,0,1,1,6.635-6.635A2.736,2.736,0,0,0,56.413,57.375Z" transform="translate(27.539 0.657)"/><path class="a" d="M163.435,108.03H144.282V61.515a2.736,2.736,0,0,0-2.736-2.736H125.128a2.736,2.736,0,0,0-2.736,2.736V75.2H103.239a2.736,2.736,0,0,0-2.736,2.736v30.1H18.417V28.681a8.209,8.209,0,0,1,8.209-8.209h114.92a8.209,8.209,0,0,1,8.209,8.209V99.822a2.736,2.736,0,0,0,5.472,0V28.681A13.7,13.7,0,0,0,141.546,15H26.626A13.7,13.7,0,0,0,12.945,28.681V108.03H4.736A2.736,2.736,0,0,0,2,110.767v10.945a13.7,13.7,0,0,0,13.681,13.681H116.92a2.736,2.736,0,1,0,0-5.472H15.681a8.209,8.209,0,0,1-8.209-8.209V113.5H97.767v5.472h-30.1a2.736,2.736,0,1,0,0,5.472H100.5a2.736,2.736,0,0,0,2.736-2.736V113.5H160.7v8.209a8.209,8.209,0,0,1-8.209,8.209H127.865a2.736,2.736,0,1,0,0,5.472H152.49a13.7,13.7,0,0,0,13.681-13.681V110.767A2.736,2.736,0,0,0,163.435,108.03Zm-35.57-43.779h10.945V75.2H127.865Zm-8.209,30.1a2.736,2.736,0,1,1,2.736,2.736A2.736,2.736,0,0,1,119.656,94.349ZM116.92,108.03v-2.736a2.736,2.736,0,0,1,2.736-2.736h5.472a2.736,2.736,0,0,1,2.736,2.736v2.736Zm16.417,0v-2.736a8.192,8.192,0,0,0-3.831-6.92,8.119,8.119,0,0,0,1.094-4.025,8.209,8.209,0,0,0-16.417,0,8.118,8.118,0,0,0,1.094,4.025,8.192,8.192,0,0,0-3.831,6.92v2.736h-5.472V80.669h32.834V108.03Z" transform="translate(-2 -15)"/><circle class="a" cx="3.139" cy="3.139" r="3.139" transform="translate(130.276 103.388)"/><ellipse class="a" cx="1.883" cy="3.139" rx="1.883" ry="3.139" transform="translate(142.83 103.388)"/><circle class="a" cx="3.139" cy="3.139" r="3.139" transform="translate(18.545 103.388)"/><ellipse class="a" cx="1.883" cy="3.139" rx="1.883" ry="3.139" transform="translate(27.333 103.388)"/></svg>