<svg xmlns="http://www.w3.org/2000/svg" width="64.901" height="69.594" viewBox="0 0 64.901 69.594"><defs><style>.a{fill:#fff;}</style></defs><g transform="translate(-26.57)"><g transform="translate(26.57)"><path class="a" d="M144.806,203.118A3.118,3.118,0,0,0,141.688,200H109.577a3.118,3.118,0,1,0,0,6.235h32.111A3.118,3.118,0,0,0,144.806,203.118Z" transform="translate(-96.493 -173.153)"/><path class="a" d="M109.577,280a3.118,3.118,0,0,0,0,6.235h19.5a3.118,3.118,0,0,0,0-6.235Z" transform="translate(-95.808 -242.414)"/><path class="a" d="M47.069,64.157H37.734a5.517,5.517,0,0,1-5.582-5.437V10.874a5.517,5.517,0,0,1,5.582-5.437H72.05a5.517,5.517,0,0,1,5.582,5.437V27.593a2.792,2.792,0,0,0,5.582,0V10.874A11.035,11.035,0,0,0,72.05,0H37.734A11.035,11.035,0,0,0,26.57,10.874V58.72A11.035,11.035,0,0,0,37.734,69.594h9.335a2.719,2.719,0,1,0,0-5.437Z" transform="translate(-26.57)"/><path class="a" d="M278.441,274.759a9.363,9.363,0,0,0-13.224,0L248.1,291.835a3.119,3.119,0,0,0-.781,1.3l-3.728,12.272a3.117,3.117,0,0,0,3.815,3.911l12.583-3.486a3.116,3.116,0,0,0,1.37-.8l17.08-17.048A9.364,9.364,0,0,0,278.441,274.759Zm-20.9,25.283-6.331,1.754,1.853-6.1,11.549-11.523,4.41,4.41Zm16.5-16.467-.6.6-4.409-4.409.6-.6a3.118,3.118,0,0,1,4.411,4.407Z" transform="translate(-216.275 -239.838)"/><path class="a" d="M141.688,120H109.577a3.118,3.118,0,1,0,0,6.235h32.111a3.118,3.118,0,0,0,0-6.235Z" transform="translate(-96.493 -103.892)"/></g></g></svg>