<svg xmlns="http://www.w3.org/2000/svg" width="22.613" height="20.233" viewBox="0 0 22.613 20.233"><defs><style>.a{fill:#6f6f6f;}</style></defs><g transform="translate(0 -12.676)"><g transform="translate(0 12.675)"><g transform="translate(0)"><path class="a" d="M22.233,21.665l-10.146-8.7a1.208,1.208,0,0,0-1.562,0L.38,21.665a1.042,1.042,0,0,0-.3,1.2,1.153,1.153,0,0,0,1.081.7h1.62v8.72a.646.646,0,0,0,.665.626H9.007a.646.646,0,0,0,.665-.626V26.989h3.268v5.294a.646.646,0,0,0,.665.626h5.561a.646.646,0,0,0,.665-.626v-8.72h1.621a1.153,1.153,0,0,0,1.081-.7A1.042,1.042,0,0,0,22.233,21.665Z" transform="translate(0 -12.675)"/></g></g></g></svg>