<svg xmlns="http://www.w3.org/2000/svg" width="92" height="69.928" viewBox="0 0 92 69.928"><defs><style>.a{fill:#fff;}</style></defs><path class="a" d="M72.71,100.305V68.4a8.913,8.913,0,0,0-8.9-8.9H8.9A8.913,8.913,0,0,0,0,68.4v31.9a8.913,8.913,0,0,0,8.9,8.9h7.992l.17,8.039a2.97,2.97,0,0,0,4.754,2.307l13.723-10.346H63.806a8.914,8.914,0,0,0,8.9-8.9Zm-38.161,2.968a2.968,2.968,0,0,0-1.787.6l-9.885,7.453-.109-5.146a2.968,2.968,0,0,0-2.967-2.9H8.9a2.971,2.971,0,0,1-2.968-2.968V68.4A2.971,2.971,0,0,1,8.9,65.435h54.9A2.971,2.971,0,0,1,66.774,68.4v31.9a2.971,2.971,0,0,1-2.968,2.968H34.548ZM92,86.951v24.484a8.913,8.913,0,0,1-8.9,8.9h-8l-.158,6.2a2.969,2.969,0,0,1-2.967,2.892c-1.184,0-.525.205-15.368-9.089H43.032a2.968,2.968,0,1,1,0-5.935c15.741,0,15.006-.167,15.994.452l10.107,6.328.1-3.888A2.968,2.968,0,0,1,72.2,114.4H83.1a2.971,2.971,0,0,0,2.968-2.968V86.95A2.971,2.971,0,0,0,83.1,83.983a2.968,2.968,0,0,1,0-5.935,8.913,8.913,0,0,1,8.9,8.9ZM54.9,78.975a2.968,2.968,0,0,1-2.968,2.968H20.774a2.968,2.968,0,1,1,0-5.935H51.936A2.968,2.968,0,0,1,54.9,78.975ZM49.524,91.959a2.968,2.968,0,0,1-2.968,2.968h-20.4a2.968,2.968,0,0,1,0-5.935h20.4A2.968,2.968,0,0,1,49.524,91.959Z" transform="translate(0 -59.499)"/></svg>