<svg xmlns="http://www.w3.org/2000/svg" width="16.86" height="21.813" viewBox="0 0 16.86 21.813"><defs><style>.a{fill:#3e4fff;}</style></defs><g transform="translate(-4.08 1)"><g transform="translate(4.08 -1)"><g transform="translate(0)"><path class="a" d="M8.51,0a8.43,8.43,0,1,0,8.43,8.43A8.43,8.43,0,0,0,8.51,0Zm0,13.928a5.5,5.5,0,1,1,5.5-5.5A5.5,5.5,0,0,1,8.51,13.928Z" transform="translate(-0.08)"/></g></g><g transform="translate(13.604 14.947)"><path class="a" d="M325.418,323.424l-2.932-2.932a1.467,1.467,0,0,0-2.075,2.075l2.932,2.932a1.467,1.467,0,0,0,2.075-2.075Z" transform="translate(-319.982 -320.062)"/></g></g></svg>