<svg xmlns="http://www.w3.org/2000/svg" width="84.229" height="84.229" viewBox="0 0 84.229 84.229"><defs><style>.a{fill:#fff;}</style></defs><path class="a" d="M163.467,73.161h7.4V92.079a2.468,2.468,0,0,0,2.468,2.468h32.9a2.468,2.468,0,0,0,2.468-2.468V62.468A2.468,2.468,0,0,0,206.239,60h-32.9a2.467,2.467,0,0,0-1.58.572L161.887,68.8a2.468,2.468,0,0,0,1.58,4.363Zm10.764-8.225h29.541V89.612H175.805V70.693a2.468,2.468,0,0,0-2.468-2.468h-3.055Z" transform="translate(-134.514 -50.129)"/><path class="a" d="M283.468,124.935h13.161a2.468,2.468,0,1,0,0-4.935H283.468a2.468,2.468,0,0,0,0,4.935Z" transform="translate(-234.773 -100.259)"/><path class="a" d="M283.468,184.935h13.161a2.468,2.468,0,1,0,0-4.935H283.468a2.468,2.468,0,0,0,0,4.935Z" transform="translate(-234.773 -150.388)"/><path class="a" d="M76.826,0H7.4A7.411,7.411,0,0,0,0,7.4V60.375a7.411,7.411,0,0,0,7.4,7.4H29.628a21.067,21.067,0,0,1-4.449,10.639l-.7.876H19.083a2.468,2.468,0,1,0,0,4.935H65.146a2.468,2.468,0,0,0,0-4.935H59.751l-.7-.876A21.068,21.068,0,0,1,54.6,67.778H76.826a7.411,7.411,0,0,0,7.4-7.4V7.4A7.411,7.411,0,0,0,76.826,0ZM7.4,4.935H76.826A2.47,2.47,0,0,1,79.293,7.4V51H34.711v-.823a12.335,12.335,0,0,0-5.652-10.361,9.048,9.048,0,1,0-13.372,0,12.335,12.335,0,0,0-5.652,10.361V51h-5.1V7.4A2.47,2.47,0,0,1,7.4,4.935ZM18.26,33.724a4.113,4.113,0,1,1,4.113,4.113A4.117,4.117,0,0,1,18.26,33.724Zm4.113,9.048a7.411,7.411,0,0,1,7.4,7.4V51H14.97v-.823A7.411,7.411,0,0,1,22.373,42.772ZM53.615,79.293h-23a26.063,26.063,0,0,0,3.979-11.516H49.636A26.063,26.063,0,0,0,53.615,79.293ZM76.826,62.842H7.4a2.47,2.47,0,0,1-2.468-2.468V55.933H79.293v4.442A2.47,2.47,0,0,1,76.826,62.842Z"/></svg>