<svg xmlns="http://www.w3.org/2000/svg" width="42.264" height="37.043" viewBox="0 0 42.264 37.043"><defs><style>.a{fill:#0d4efe;}</style></defs><g transform="translate(0 0)"><g transform="translate(0 0)"><g transform="translate(0 0)"><path class="a" d="M179.5,159.668a5.513,5.513,0,1,0,5.513,5.513A5.513,5.513,0,0,0,179.5,159.668Zm0,8.4a2.888,2.888,0,0,1,0-5.775h0a2.888,2.888,0,0,1,0,5.775Z" transform="translate(-158.118 -147.699)"/><path class="a" d="M38.6,29.8,10.574,26.614a3.849,3.849,0,0,0-3.028.873,3.9,3.9,0,0,0-1.488,2.669l-.513,4.209H3.953A4.124,4.124,0,0,0,0,38.624V59.615a3.9,3.9,0,0,0,3.8,4q.078,0,.156,0H32.13a4.213,4.213,0,0,0,4.311-4v-.821a5.132,5.132,0,0,0,1.95-.821A4.26,4.26,0,0,0,39.88,55.2L42.24,34.364A4.157,4.157,0,0,0,38.6,29.8ZM34.388,59.615a2.161,2.161,0,0,1-2.258,1.95H3.953a1.848,1.848,0,0,1-1.9-1.793q0-.079,0-.158v-3.8l7.955-5.851a2.464,2.464,0,0,1,3.182.154l5.594,4.927a4.825,4.825,0,0,0,3.028,1.129,4.67,4.67,0,0,0,2.464-.667l10.111-5.851v9.957Zm0-12.369L23.2,53.764a2.617,2.617,0,0,1-3.028-.257l-5.646-4.978a4.568,4.568,0,0,0-5.7-.205L2.054,53.251V38.624a2.072,2.072,0,0,1,1.9-2.207H32.13a2.361,2.361,0,0,1,2.258,2.207Zm5.8-13.159,0,.02L37.775,54.944a1.745,1.745,0,0,1-.667,1.386c-.205.205-.667.308-.667.411V38.624a4.414,4.414,0,0,0-4.311-4.26H7.6l.462-4a2.361,2.361,0,0,1,.77-1.334,2.361,2.361,0,0,1,1.54-.411L38.34,31.849A2.053,2.053,0,0,1,40.189,34.087Z" transform="translate(0 -26.576)"/></g></g></g></svg>