<svg xmlns="http://www.w3.org/2000/svg" width="42.267" height="33.267" viewBox="0 0 42.267 33.267"><defs><style>.a{fill:#0d4efe;}</style></defs><g transform="translate(0 0)"><g transform="translate(0 0)"><g transform="translate(0 0)"><path class="a" d="M40.861,49.983a4.544,4.544,0,0,0-3.335-1.406H30.856V48.5a3.607,3.607,0,0,0-1.085-2.612A3.676,3.676,0,0,0,27.16,44.8H15.107a3.7,3.7,0,0,0-3.737,3.7v.08H4.741a4.544,4.544,0,0,0-3.335,1.406A4.777,4.777,0,0,0,0,53.318V73.326a4.544,4.544,0,0,0,1.406,3.335,4.777,4.777,0,0,0,3.335,1.406H37.526a4.544,4.544,0,0,0,3.335-1.406,4.777,4.777,0,0,0,1.406-3.335V53.318A4.544,4.544,0,0,0,40.861,49.983Zm-.683,23.343h-.04a2.606,2.606,0,0,1-2.612,2.612H4.741a2.606,2.606,0,0,1-2.612-2.612V53.318a2.606,2.606,0,0,1,2.612-2.612H12.5a1.08,1.08,0,0,0,1.085-1.085V48.456a1.512,1.512,0,0,1,1.567-1.567H27.16a1.512,1.512,0,0,1,1.567,1.567v1.165a1.08,1.08,0,0,0,1.085,1.085h7.754a2.606,2.606,0,0,1,2.612,2.612Z" transform="translate(0 -44.8)"/><path class="a" d="M121.884,130.8a9.877,9.877,0,1,0,6.991,2.893A9.9,9.9,0,0,0,121.884,130.8Zm5.464,15.388a7.76,7.76,0,0,1-10.928,0,7.681,7.681,0,0,1-2.25-5.464,7.852,7.852,0,0,1,2.25-5.464,7.681,7.681,0,0,1,5.464-2.25,7.852,7.852,0,0,1,5.464,2.25,7.681,7.681,0,0,1,2.25,5.464A7.518,7.518,0,0,1,127.348,146.188Z" transform="translate(-100.75 -122.162)"/><ellipse class="a" cx="1.969" cy="1.969" rx="1.969" ry="1.969" transform="translate(33.468 8.598)"/></g></g></g></svg>