<svg xmlns="http://www.w3.org/2000/svg" width="40.114" height="36.767" viewBox="0 0 40.114 36.767"><defs><style>.a{fill:#fff;}</style></defs><path class="a" d="M39.765,28.662a1.647,1.647,0,0,0-1.3-.634H7.1l-.466-5.194a1.648,1.648,0,0,0-1.641-1.5H1.647a1.647,1.647,0,0,0,0,3.295H3.488L5.294,44.747c0,.024,0,.047,0,.071A1.657,1.657,0,0,0,5.317,45l.066.736c0,.014,0,.028,0,.042a6.341,6.341,0,0,0,2.368,4.253,4.993,4.993,0,1,0,8.629,1.373H25.4a4.995,4.995,0,1,0,4.7-3.295H11.7a3.059,3.059,0,0,1-2.813-1.855l26.328-1.547a1.648,1.648,0,0,0,1.5-1.245l3.347-13.389A1.648,1.648,0,0,0,39.765,28.662Z" transform="translate(0 -21.334)"/></svg>