<svg xmlns="http://www.w3.org/2000/svg" width="20.511" height="25" viewBox="0 0 20.511 25"><defs><style>.a{fill:#6c6c6c;}</style></defs><g transform="translate(-26.57)"><g transform="translate(26.57)"><path class="a" d="M118.578,200.985a.985.985,0,0,0-.985-.985H107.444a.985.985,0,1,0,0,1.971h10.148A.985.985,0,0,0,118.578,200.985Z" transform="translate(-103.309 -190.242)"/><path class="a" d="M107.444,280a.985.985,0,1,0,0,1.971h6.163a.985.985,0,0,0,0-1.971Z" transform="translate(-103.093 -266.339)"/><path class="a" d="M33.049,23.047H30.1a1.868,1.868,0,0,1-1.764-1.953V3.906A1.868,1.868,0,0,1,30.1,1.953H40.943a1.868,1.868,0,0,1,1.764,1.953V9.912a.887.887,0,1,0,1.764,0V3.906A3.736,3.736,0,0,0,40.943,0H30.1A3.736,3.736,0,0,0,26.57,3.906V21.094A3.736,3.736,0,0,0,30.1,25h2.95a.982.982,0,0,0,0-1.953Z" transform="translate(-26.57 0)"/><path class="a" d="M254.513,272.889a2.959,2.959,0,0,0-4.179,0l-5.409,5.4a.985.985,0,0,0-.247.411l-1.178,3.878a.985.985,0,0,0,1.206,1.236l3.977-1.1a.985.985,0,0,0,.433-.252l5.4-5.388A2.959,2.959,0,0,0,254.513,272.889Zm-6.607,7.99-2,.554.586-1.928,3.65-3.642,1.394,1.394Zm5.214-5.2-.191.19-1.393-1.393.19-.19a.985.985,0,0,1,1.394,1.393Z" transform="translate(-234.866 -258.846)"/><path class="a" d="M117.593,120H107.444a.985.985,0,0,0,0,1.971h10.148a.985.985,0,0,0,0-1.971Z" transform="translate(-103.309 -114.145)"/></g></g></svg>