<svg xmlns="http://www.w3.org/2000/svg" width="25.049" height="26.719" viewBox="0 0 25.049 26.719"><defs><style>.a{fill:#6c6c6c;}</style></defs><g transform="translate(-16)"><g transform="translate(21.845)"><path class="a" d="M141.282,12.179a.833.833,0,0,0-.76-.489h-3.34V.835A.835.835,0,0,0,136.348,0h-3.34a.835.835,0,0,0-.835.835V11.689h-3.34a.835.835,0,0,0-.628,1.384l5.845,6.68a.833.833,0,0,0,1.256,0l5.845-6.68A.832.832,0,0,0,141.282,12.179Z" transform="translate(-127.998)"/></g><g transform="translate(16 18.369)"><path class="a" d="M37.709,352v5.01H19.34V352H16v6.68a1.669,1.669,0,0,0,1.67,1.67H39.379a1.668,1.668,0,0,0,1.67-1.67V352Z" transform="translate(-16 -352)"/></g></g></svg>