<svg xmlns="http://www.w3.org/2000/svg" width="44" height="44" viewBox="0 0 44 44"><defs><style>.a{fill:#fff;}</style></defs><path class="a" d="M196.008.028c-.046,0-.084-.028-.132-.028H176.168a5.507,5.507,0,0,0-5.5,5.5V7.333a1.833,1.833,0,1,0,3.666,0V5.5a1.836,1.836,0,0,1,1.834-1.833h8.541l-.559.187a3.685,3.685,0,0,0-2.482,3.479v27.5h-5.5A1.836,1.836,0,0,1,174.334,33V29.333a1.833,1.833,0,1,0-3.666,0V33a5.507,5.507,0,0,0,5.5,5.5h5.5v1.833A3.67,3.67,0,0,0,185.334,44a3.846,3.846,0,0,0,1.168-.182l11.015-3.672A3.685,3.685,0,0,0,200,36.667v-33A3.674,3.674,0,0,0,196.008.028Zm0,0" transform="translate(-156.001)"/><path class="a" d="M19.629,114.533,12.3,107.2a1.833,1.833,0,0,0-3.129,1.3V114H1.833a1.833,1.833,0,0,0,0,3.667H9.167v5.5a1.833,1.833,0,0,0,3.129,1.3l7.333-7.334A1.831,1.831,0,0,0,19.629,114.533Zm0,0" transform="translate(0 -97.496)"/></svg>