<svg xmlns="http://www.w3.org/2000/svg" xmlns:xlink="http://www.w3.org/1999/xlink" width="205.71" height="74.254" viewBox="0 0 205.71 74.254"><defs><style>.a{fill:#fff;}.b{clip-path:url(#a);}</style><clipPath id="a"><path class="a" d="M0-5.294H205.708V-79.548H0Z" transform="translate(0 79.548)"/></clipPath></defs><g transform="translate(0.001 79.548)"><g class="b" transform="translate(0.001 -79.548)"><g transform="translate(82.146 36.7)"><path class="a" d="M-8.708-.563A5.076,5.076,0,0,0-7.929-3.47,5.178,5.178,0,0,0-8.42-5.85,4.1,4.1,0,0,0-9.745-7.381a5.454,5.454,0,0,0-1.95-.823,11.152,11.152,0,0,0-2.392-.245h-5.766V7.545h3.606V1.779h1.987l3.065,5.766h4.052l-3.631-6.4A4.711,4.711,0,0,0-8.7-.562m-2.76-2.906a2.144,2.144,0,0,1-.748,1.778,3.4,3.4,0,0,1-2.171.6h-1.87V-5.58h1.87a4.139,4.139,0,0,1,2.171.468,1.781,1.781,0,0,1,.748,1.644M-33.294,7.545h10.254V4.5h-6.648V.822h5.433V-2.2H-29.7V-5.412h6.4V-8.449h-10Zm-6.9-12.956H-35.8V-8.449H-48.214v3.037h4.392V7.545h3.63ZM-60.38,7.545h10.256V4.5h-6.648V.822h5.447V-2.2h-5.447V-5.412h6.4V-8.449H-60.377Zm-7.384,0h3.606V-8.449h-3.606Zm-7.137,0h3.36V-8.449h-3.8l-2.6,7.187-.957,2.8H-79l-.957-2.8-2.674-7.187h-3.827V7.545h3.312V1.682q0-.589-.048-1.3T-83.3-1.053c-.041-.482-.086-.957-.134-1.423s-.1-.895-.148-1.289h.1l1.276,3.7,2.453,6.206h1.448L-75.858-.06l1.325-3.7h.1q-.075.589-.148,1.289c-.048.468-.1.935-.146,1.423s-.09.962-.123,1.435-.048.907-.048,1.3Zm-13.957,0-3.631-6.4a4.717,4.717,0,0,0,2.073-1.7,5.076,5.076,0,0,0,.779-2.906,5.191,5.191,0,0,0-.491-2.38A4.112,4.112,0,0,0-91.453-7.38,5.455,5.455,0,0,0-93.4-8.2a11.137,11.137,0,0,0-2.391-.245h-5.766V7.545h3.606V1.779h1.987L-92.9,7.545ZM-93.177-3.468a2.144,2.144,0,0,1-.748,1.778,3.4,3.4,0,0,1-2.171.6h-1.87V-5.58h1.87a4.139,4.139,0,0,1,2.171.468,1.781,1.781,0,0,1,.748,1.644m-5.863,16.279h-3.631v8.582a8.655,8.655,0,0,0,1.644,5.863,6.047,6.047,0,0,0,4.759,1.84,5.9,5.9,0,0,0,4.7-1.84,8.8,8.8,0,0,0,1.607-5.863V12.811h-3.485v8.953a5.472,5.472,0,0,1-.736,3.287,2.5,2.5,0,0,1-2.085.935,2.434,2.434,0,0,1-2.06-.935,5.61,5.61,0,0,1-.711-3.287ZM-114.371,28.8h9.935V25.756h-6.329V12.811h-3.606Zm-.637-21.26h10.254V4.5H-111.4V.822h5.447V-2.2H-111.4V-5.412h6.4V-8.449h-10.008Zm-6.525,0,4.808-15.994h-3.682L-122.3-.992q-.344,1.325-.639,2.564t-.637,2.564h-.1q-.368-1.325-.65-2.564t-.65-2.564l-1.914-7.457h-3.827l4.831,15.994Zm-7.261,9.818a9.618,9.618,0,0,0-.614,3.545,9.84,9.84,0,0,0,.589,3.544,7.23,7.23,0,0,0,1.619,2.564,6.8,6.8,0,0,0,2.4,1.558,8.065,8.065,0,0,0,2.919.528,6.623,6.623,0,0,0,2.785-.589,6.65,6.65,0,0,0,2.294-1.766l-1.987-2.182a4.987,4.987,0,0,1-1.325,1.03,3.594,3.594,0,0,1-1.714.393,3.385,3.385,0,0,1-2.821-1.362,6.139,6.139,0,0,1-1.055-3.838,7.064,7.064,0,0,1,.312-2.158,4.892,4.892,0,0,1,.846-1.619,3.752,3.752,0,0,1,1.262-1.018,3.484,3.484,0,0,1,1.558-.355,3.173,3.173,0,0,1,1.46.312,5.611,5.611,0,0,1,1.239.884l1.987-2.233a7.7,7.7,0,0,0-2.026-1.459,5.833,5.833,0,0,0-2.712-.623,7.7,7.7,0,0,0-2.931.564,7.013,7.013,0,0,0-2.428,1.644,7.906,7.906,0,0,0-1.655,2.637m48-4.551h-5.47V28.8h5.936a9.974,9.974,0,0,0,2.428-.282,6.1,6.1,0,0,0,1.974-.859,4.119,4.119,0,0,0,1.325-1.46,4.363,4.363,0,0,0,.478-2.11,3.5,3.5,0,0,0-.871-2.526,4.675,4.675,0,0,0-2.588-1.226v-.1a3.5,3.5,0,0,0,1.2-.539,3.367,3.367,0,0,0,.834-.834,3.544,3.544,0,0,0,.482-1.007,3.822,3.822,0,0,0,.156-1.08,3.687,3.687,0,0,0-.455-1.914A3.472,3.472,0,0,0-76.6,13.643a5.536,5.536,0,0,0-1.87-.65,13.618,13.618,0,0,0-2.319-.184m-1.87,9h2.035a4.164,4.164,0,0,1,2.233.478,1.7,1.7,0,0,1,.736,1.533q0,2.182-2.961,2.182h-2.035Zm1.714-6.206A3.584,3.584,0,0,1-79.061,16a1.426,1.426,0,0,1,.612,1.3,1.812,1.812,0,0,1-.6,1.435,2.882,2.882,0,0,1-1.926.527h-1.692V15.606Z" transform="translate(130.712 8.449)"/></g></g><g transform="translate(-0.001 -79.548)"><path class="a" d="M-1.718,0-25.8,33.675V74.081H40.147V33.674L16.066,0,11.422,6.82,31.878,36.328V65.813h-49.4V36.328L-1.969,14.574.213,17.8l12.4,18.7,3.966,6.033V50.2H-2.214V42.533L3.111,34.5l-4.96-7.48-8.635,13.017V58.466H24.848V40.04Z" transform="translate(25.8)"/></g></g></svg>