<svg xmlns="http://www.w3.org/2000/svg" width="67.658" height="35" viewBox="0 0 67.658 35"><defs><style>.a{fill:#818181;}</style></defs><g transform="translate(0 -111.967)"><g transform="translate(0 111.967)"><path class="a" d="M115.526,112.9a.817.817,0,0,0-.014-.092.282.282,0,0,0,0-.031,1.161,1.161,0,0,0-.2-.369c-.007-.008-.007-.02-.014-.028s-.041-.026-.057-.043a1.142,1.142,0,0,0-.286-.221,1.177,1.177,0,0,0-.109-.056,1.16,1.16,0,0,0-.448-.093H63.062a1.133,1.133,0,0,0-.372.067,1.116,1.116,0,0,0-.107.049,1.2,1.2,0,0,0-.218.127,1.014,1.014,0,0,0-.1.086,1.187,1.187,0,0,0-.156.184,1.283,1.283,0,0,0-.072.117c-.012.022-.029.04-.04.063a1.114,1.114,0,0,0-.055.194c-.007.027-.023.049-.028.077L56.08,145.6a.652.652,0,0,0,0,.068,1.166,1.166,0,0,0,.015.37.208.208,0,0,0,.013.088.074.074,0,0,0,.006.035,1.16,1.16,0,0,0,.2.366c.007.008.008.02.014.028s.041.026.057.043a1.138,1.138,0,0,0,.286.219.882.882,0,0,0,.11.057,1.152,1.152,0,0,0,.444.1h51.334a1.154,1.154,0,0,0,.38-.068,1.114,1.114,0,0,0,.117-.056,1.174,1.174,0,0,0,.216-.125,1.063,1.063,0,0,0,.1-.1,1.168,1.168,0,0,0,.147-.174,1.462,1.462,0,0,0,.077-.139c.016-.036.043-.065.056-.1a.99.99,0,0,0,.023-.117.706.706,0,0,0,.03-.083l5.833-32.667a.654.654,0,0,0,0-.068A1.144,1.144,0,0,0,115.526,112.9Zm-4.816,1.4L83.072,133.749,65.671,114.3Zm-46.92,1.4,13.155,14.7L58.878,143.2Zm-2.9,28.934,17.617-12.483,3.513,3.926a1.167,1.167,0,0,0,1.541.175l6.545-4.6,15.278,12.987ZM107.77,143.6,92.083,130.262l20.667-14.543Z" transform="translate(-47.895 -111.967)"/><path class="a" d="M1.167,122.3H10.5a1.167,1.167,0,0,0,0-2.333H1.167a1.167,1.167,0,0,0,0,2.333Z" transform="translate(0 -118.8)"/><path class="a" d="M9.333,169.134a1.167,1.167,0,0,0-1.167-1.167h-7a1.167,1.167,0,1,0,0,2.333h7A1.167,1.167,0,0,0,9.333,169.134Z" transform="translate(0 -159.8)"/><path class="a" d="M5.833,215.967H1.167a1.167,1.167,0,1,0,0,2.333H5.833a1.167,1.167,0,0,0,0-2.333Z" transform="translate(0 -200.8)"/><path class="a" d="M3.5,263.967H1.167a1.167,1.167,0,0,0,0,2.333H3.5a1.167,1.167,0,0,0,0-2.333Z" transform="translate(0 -241.8)"/></g></g></svg>