<svg xmlns="http://www.w3.org/2000/svg" width="31.121" height="49.794" viewBox="0 0 31.121 49.794"><defs><style>.a{fill:#100a73;}</style></defs><g transform="translate(-96)"><g transform="translate(96)"><path class="a" d="M125.046,43.76V35.924a9.339,9.339,0,0,0-3.189-7.027l-4.573-4,4.573-4a9.339,9.339,0,0,0,3.189-7.027V6.033A3.1,3.1,0,0,0,124.009,0h-24.9a3.1,3.1,0,0,0-1.037,6.033V13.87a9.34,9.34,0,0,0,3.189,7.027l4.573,4-4.573,4a9.339,9.339,0,0,0-3.189,7.027V43.76a3.1,3.1,0,0,0,1.037,6.033h24.9a3.1,3.1,0,0,0,1.037-6.033Zm-2.075-.191H100.15V35.924a7.267,7.267,0,0,1,2.479-5.465l5.465-4.782a1.035,1.035,0,0,0,0-1.56l-5.465-4.782a7.267,7.267,0,0,1-2.479-5.465V6.224h22.822V13.87a7.267,7.267,0,0,1-2.479,5.465l-5.465,4.782a1.035,1.035,0,0,0,0,1.56l5.465,4.782a7.26,7.26,0,0,1,2.479,5.465V43.57Z" transform="translate(-96)"/></g><g transform="translate(102.226 29.068)"><path class="a" d="M178.461,309.628l-8.3-10.374a1.074,1.074,0,0,0-1.62,0l-8.3,10.374a1.037,1.037,0,0,0,.809,1.685h16.6a1.037,1.037,0,0,0,.811-1.685Z" transform="translate(-160.016 -298.885)"/></g><g transform="translate(106.373 16.598)"><path class="a" d="M212.954,171.308a1.037,1.037,0,0,0-.959-.641h-8.3a1.039,1.039,0,0,0-.734,1.772l4.15,4.15a1.042,1.042,0,0,0,1.469,0l4.15-4.15A1.035,1.035,0,0,0,212.954,171.308Z" transform="translate(-202.658 -170.667)"/></g></g></svg>