<svg xmlns="http://www.w3.org/2000/svg" width="11.825" height="13.912" viewBox="0 0 11.825 13.912"><defs><style>.a{fill:#fff;}</style></defs><g transform="translate(-0.332 13.912) rotate(-90)"><path class="a" d="M6.956,6.245a.656.656,0,0,1-.118.382L3.36,11.844a.69.69,0,0,1-.577.313H.7a.7.7,0,0,1-.7-.7.657.657,0,0,1,.118-.383L3.339,6.245.118,1.41A.657.657,0,0,1,0,1.028a.7.7,0,0,1,.7-.7H2.782A.69.69,0,0,1,3.36.645L6.838,5.862A.656.656,0,0,1,6.956,6.245Zm0,0"/><path class="a" d="M220.288,6.245a.656.656,0,0,1-.118.382l-3.478,5.217a.691.691,0,0,1-.577.313h-2.087a.7.7,0,0,1-.7-.7.656.656,0,0,1,.118-.383l3.221-4.834L213.45,1.41a.656.656,0,0,1-.118-.382.7.7,0,0,1,.7-.7h2.087a.691.691,0,0,1,.577.313l3.478,5.217A.656.656,0,0,1,220.288,6.245Zm0,0" transform="translate(-206.376)"/></g></svg>