<svg xmlns="http://www.w3.org/2000/svg" width="17.813" height="19" viewBox="0 0 17.813 19"><defs><style>.a{fill:#0d4efe;}</style></defs><g transform="translate(-16)"><g transform="translate(20.156)"><path class="a" d="M137.351,4.953,133.195.2a.592.592,0,0,0-.893,0l-4.156,4.75a.593.593,0,0,0,.447.984h2.375v7.719a.594.594,0,0,0,.594.594h2.375a.594.594,0,0,0,.594-.594V5.938H136.9a.593.593,0,0,0,.446-.984Z" transform="translate(-127.998)"/></g><g transform="translate(16 13.063)"><path class="a" d="M31.438,352v3.563H18.375V352H16v4.75a1.187,1.187,0,0,0,1.188,1.188H32.625a1.186,1.186,0,0,0,1.188-1.187V352Z" transform="translate(-16 -352)"/></g></g></svg>