<svg xmlns="http://www.w3.org/2000/svg" width="30.818" height="36.939" viewBox="0 0 30.818 36.939"><defs><style>.a{fill:#0d4efe;}</style></defs><g transform="translate(0)"><path class="a" d="M95.928,17.794a8.608,8.608,0,0,0,6.291-2.607A8.608,8.608,0,0,0,104.825,8.9a8.61,8.61,0,0,0-2.607-6.291,8.895,8.895,0,0,0-12.581,0A8.609,8.609,0,0,0,87.031,8.9a8.608,8.608,0,0,0,2.607,6.291A8.611,8.611,0,0,0,95.928,17.794Zm0,0" transform="translate(-80.752 0)"/><path class="a" d="M30.743,257.878a21.974,21.974,0,0,0-.3-2.334,18.39,18.39,0,0,0-.574-2.347,11.592,11.592,0,0,0-.965-2.189,8.258,8.258,0,0,0-1.455-1.9,6.415,6.415,0,0,0-2.09-1.313,7.221,7.221,0,0,0-2.668-.483,2.708,2.708,0,0,0-1.446.613c-.433.283-.94.61-1.506.971a8.634,8.634,0,0,1-1.949.859,7.569,7.569,0,0,1-4.768,0,8.613,8.613,0,0,1-1.948-.858c-.561-.358-1.068-.685-1.508-.972a2.7,2.7,0,0,0-1.445-.613,7.213,7.213,0,0,0-2.667.483,6.41,6.41,0,0,0-2.09,1.313,8.261,8.261,0,0,0-1.454,1.9A11.615,11.615,0,0,0,.947,253.2a18.434,18.434,0,0,0-.574,2.346,21.9,21.9,0,0,0-.3,2.335c-.049.707-.074,1.44-.074,2.181A6.134,6.134,0,0,0,1.822,264.7a6.558,6.558,0,0,0,4.694,1.712H24.3A6.557,6.557,0,0,0,29,264.7a6.131,6.131,0,0,0,1.822-4.641C30.818,259.315,30.793,258.581,30.743,257.878Zm0,0" transform="translate(0 -229.474)"/></g></svg>