<svg xmlns="http://www.w3.org/2000/svg" width="45.541" height="45.541" viewBox="0 0 45.541 45.541"><defs><style>.a{fill:#6c6c6c;}</style></defs><path class="a" d="M41.538,0H4A4.007,4.007,0,0,0,0,4V32.644a4.007,4.007,0,0,0,4,4H16.019A11.391,11.391,0,0,1,13.614,42.4l-.379.474H10.318a1.334,1.334,0,1,0,0,2.668H35.223a1.334,1.334,0,1,0,0-2.668H32.306l-.379-.474a11.391,11.391,0,0,1-2.406-5.752H41.538a4.007,4.007,0,0,0,4-4V4A4.007,4.007,0,0,0,41.538,0ZM4,2.668H41.538A1.336,1.336,0,0,1,42.873,4V27.574h-24.1v-.445a6.67,6.67,0,0,0-3.056-5.6,4.892,4.892,0,1,0-7.23,0,6.67,6.67,0,0,0-3.056,5.6v.445H2.668V4A1.336,1.336,0,0,1,4,2.668ZM9.873,18.234A2.224,2.224,0,1,1,12.1,20.458,2.226,2.226,0,0,1,9.873,18.234ZM12.1,23.126a4.007,4.007,0,0,1,4,4v.445H8.094v-.445A4.007,4.007,0,0,1,12.1,23.126ZM28.989,42.873H16.552A14.092,14.092,0,0,0,18.7,36.646h8.134A14.092,14.092,0,0,0,28.989,42.873Zm12.55-8.895H4a1.336,1.336,0,0,1-1.334-1.334v-2.4h40.2v2.4A1.336,1.336,0,0,1,41.538,33.978Z"/></svg>