<svg xmlns="http://www.w3.org/2000/svg" width="39.428" height="39.428" viewBox="0 0 39.428 39.428"><defs><style>.a{fill:#0d4efe;}</style></defs><g transform="translate(0 0)"><g transform="translate(0 0)"><g transform="translate(0 0)"><path class="a" d="M38.977,36.8,27.853,25.674a15.713,15.713,0,1,0-2.179,2.179L36.8,38.977A1.54,1.54,0,0,0,38.977,36.8ZM24.638,24.638a12.632,12.632,0,1,1,0-17.865A12.647,12.647,0,0,1,24.638,24.638Z" transform="translate(0 0)"/></g></g><g transform="translate(6.623 6.623)"><path class="a" d="M102.63,93.547h-6v-6a1.54,1.54,0,0,0-3.081,0v6h-6a1.54,1.54,0,0,0,0,3.081h6v6a1.54,1.54,0,1,0,3.081,0v-6h6a1.54,1.54,0,1,0,0-3.081Z" transform="translate(-86.005 -86.005)"/></g></g></svg>